# xmcd
#
# Track frame offsets: 
#        150
#        18216
#        39337
#        56184
#        73332
#        90782
#        105839
#        122276
#        141483
#        156176
#        173479
#        190904
#        214500
#        232397
#        246667
#        264820
#        291211
#        311187
#        323520
#        344126
#
# Disc length: 4790 seconds
#
# Revision: 0
# Processed by: cddbd v1.5.2PL0 Copyright (c) Steve Scherf et al.
# Submitted via: ExactAudioCopy v1.0b4
#
DISCID=2112b414
DTITLE=Various Artist - Alligator Records 45th Anniversary Collection [CD1
DTITLE=)
DYEAR=2016
DGENRE=Blues
TTITLE0=Lil' Ed And The Imperials - Hold That Train
TTITLE1=Son Seals - Cotton Picking Blues
TTITLE2=Shemekia Copeland - Devil's Hand
TTITLE3=Elvin Bishop - Can't Even Do Wrong Right
TTITLE4=Toronzo Cannon - Bad Contract
TTITLE5=Charlie Musselwhite - The Well
TTITLE6=Marcia Ball - The Tattooed Lady And The Alligator Man
TTITLE7=Tommy Castro And The Painkellers - Common Ground
TTITLE8=Carey and Lurrie Bell - The Road Is So Long
TTITLE9=Koko Taylor - Voodoo Woman
TTITLE10=Selwyn Birchwood - Don't Call No Ambulance
TTITLE11=Rick Estrin and The Nightcats - Callin' All Fools
TTITLE12=Joe Louis Walker - Too Drunk To Drive Drunk
TTITLE13=Lee Rocker - Crazy When She Drinks
TTITLE14=Moreland and Arbuckle - Take Me With You
TTITLE15=Jimmy Johnson - Your Turn To Cry
TTITLE16=Delbert McClinton - Givin' It Up For Your Love
TTITLE17=Hound Dog Taylor and The HouseRockers - Take Five
TTITLE18=Anders Osborne - Let It Go
TTITLE19=Mavis Staples - Will The Circle Be Unbroken
EXTD=
EXTT0=
EXTT1=
EXTT2=
EXTT3=
EXTT4=
EXTT5=
EXTT6=
EXTT7=
EXTT8=
EXTT9=
EXTT10=
EXTT11=
EXTT12=
EXTT13=
EXTT14=
EXTT15=
EXTT16=
EXTT17=
EXTT18=
EXTT19=
PLAYORDER=
